<svg width="78" height="77" viewBox="0 0 78 77" fill="none" xmlns="http://www.w3.org/2000/svg">
<path d="M39 76.1701C60.208 76.1701 77.4 73.0701 77.4 69.2453C77.4 65.4213 60.208 62.3213 39 62.3213C17.792 62.3213 0.599976 65.4213 0.599976 69.2453C0.599976 73.0693 17.792 76.1701 39 76.1701Z" fill="url(#paint0_radial_9_421)"/>
<path d="M39 61.6923C60.208 61.6923 77.4 48.0227 77.4 31.1611C77.4 14.2987 60.208 0.629883 39 0.629883C17.792 0.629883 0.599976 14.2995 0.599976 31.1603C0.599976 48.0211 17.792 61.6923 39 61.6923Z" fill="url(#paint1_radial_9_421)"/>
<path fill-rule="evenodd" clip-rule="evenodd" d="M60.9008 60.4987C61.0414 60.1433 61.0709 59.7536 60.9853 59.381C60.8996 59.0085 60.7029 58.6707 60.4212 58.4124C60.1394 58.1541 59.7859 57.9874 59.4073 57.9343C59.0288 57.8812 58.6431 57.9443 58.3011 58.1152C57.9592 58.2861 57.6772 58.5568 57.4925 58.8914C57.3077 59.226 57.2288 59.6089 57.2664 59.9893C57.3039 60.3697 57.4559 60.7297 57.7025 61.0218C57.9491 61.3139 58.2785 61.5243 58.6472 61.6251C58.5976 61.7507 58.5616 61.8811 58.54 62.0139C57.9612 62.347 57.5382 62.8962 57.3641 63.5409C57.1899 64.1856 57.2788 64.8731 57.6112 65.4523C57.7758 65.7392 57.9953 65.9907 58.2572 66.1926C58.5191 66.3945 58.8182 66.5429 59.1375 66.6291C59.4568 66.7154 59.7899 66.7379 60.1178 66.6953C60.4458 66.6528 60.7621 66.546 61.0488 66.3811C61.098 66.8144 61.2588 67.2274 61.5156 67.5798C61.7723 67.9323 62.1161 68.212 62.5134 68.3916C62.9107 68.5713 63.3478 68.6447 63.782 68.6047C64.2162 68.5648 64.6326 68.4127 64.9904 68.1635C65.1111 68.4178 65.2872 68.6419 65.5057 68.8194C65.7243 68.9968 65.9797 69.1232 66.2534 69.1892C66.5271 69.2551 66.812 69.2591 67.0874 69.2007C67.3628 69.1424 67.6216 69.0231 67.845 68.8518C68.0684 68.6805 68.2506 68.4613 68.3783 68.2105C68.5061 67.9596 68.5761 67.6834 68.5833 67.402C68.5905 67.1206 68.5346 66.8411 68.4199 66.584C68.3051 66.327 68.1343 66.0989 67.92 65.9163C68.3575 65.4377 68.5936 64.8088 68.579 64.1606C68.5644 63.5123 68.3004 62.8946 67.8418 62.4361C67.3832 61.9777 66.7655 61.7137 66.1172 61.6993C65.4689 61.6849 64.8401 61.9211 64.3616 62.3587C64.1067 62.0568 63.7632 61.8426 63.3799 61.7466C62.9966 61.6505 62.5928 61.6775 62.2256 61.8235C62.1388 61.5067 61.971 61.2179 61.7387 60.9856C61.5064 60.7534 61.2176 60.5855 60.9008 60.4987ZM20.1144 61.6907C20.1144 61.9387 20.0792 62.1859 20.0072 62.4227C20.4894 62.5432 20.94 62.7661 21.3283 63.0762C21.7167 63.3863 22.0338 63.7764 22.258 64.22C22.4822 64.6636 22.6082 65.1502 22.6276 65.6468C22.647 66.1434 22.5593 66.6384 22.3703 67.0981C22.1814 67.5578 21.8957 67.9714 21.5327 68.3109C21.1697 68.6503 20.7378 68.9076 20.2665 69.0653C19.7952 69.223 19.2954 69.2774 18.8012 69.2248C18.307 69.1722 17.8299 69.0138 17.4024 68.7603C17.0116 69.0748 16.5248 69.2459 16.0232 69.2451C15.6416 69.2459 15.2664 69.1467 14.9352 68.9587C14.7934 69.2703 14.5537 69.5272 14.2527 69.6902C13.9516 69.8533 13.6056 69.9136 13.2671 69.8621C12.9286 69.8106 12.6162 69.6501 12.3773 69.4049C12.1383 69.1597 11.9859 68.8432 11.9432 68.5035C11.6586 68.6061 11.3534 68.6388 11.0535 68.5988C10.7536 68.5589 10.4677 68.4474 10.2199 68.2738C9.9721 68.1003 9.76962 67.8697 9.62954 67.6015C9.48945 67.3334 9.41587 67.0355 9.41499 66.7329C9.4141 66.4304 9.48594 66.132 9.62445 65.8631C9.76296 65.5941 9.96409 65.3623 10.2109 65.1873C10.4577 65.0123 10.7429 64.8992 11.0426 64.8574C11.3423 64.8157 11.6476 64.8466 11.9328 64.9475C11.9154 64.5447 11.9949 64.1435 12.1648 63.7778C12.3347 63.4121 12.5899 63.0926 12.909 62.846C13.228 62.5995 13.6016 62.4331 13.9984 62.361C14.3951 62.2889 14.8033 62.3131 15.1888 62.4315C15.0823 62.0852 15.0518 61.7199 15.0994 61.3607C15.147 61.0015 15.2715 60.6568 15.4645 60.3501C15.6575 60.0434 15.9144 59.782 16.2177 59.5837C16.521 59.3854 16.8635 59.2548 17.2218 59.201C17.5802 59.1472 17.9459 59.1713 18.2941 59.2717C18.6422 59.3722 18.9646 59.5466 19.2392 59.783C19.5138 60.0194 19.7341 60.3123 19.8852 60.6417C20.0362 60.9711 20.1144 61.3284 20.1144 61.6907Z" fill="url(#paint2_radial_9_421)"/>
<path fill-rule="evenodd" clip-rule="evenodd" d="M42.1472 16.3675C42.1472 16.6779 42.0912 16.9755 41.9888 17.2491C42.176 17.3403 42.3504 17.4539 42.5088 17.5867C42.7611 17.1673 43.1302 16.8305 43.571 16.6177C44.0117 16.4048 44.505 16.3251 44.9904 16.3883C45.2668 15.8971 45.7 15.5128 46.2207 15.297C46.7414 15.0812 47.3195 15.0464 47.8623 15.1982C48.4052 15.3499 48.8814 15.6795 49.2147 16.134C49.548 16.5885 49.7192 17.1417 49.7008 17.7051C50.0282 17.7899 50.3353 17.9397 50.6037 18.1456C50.8721 18.3515 51.0964 18.6092 51.2632 18.9035C51.8896 18.9795 52.464 19.2875 52.8736 19.7659C53.4914 19.5022 54.1774 19.4431 54.8312 19.5972C55.4851 19.7513 56.0725 20.1105 56.5076 20.6223C56.9427 21.1341 57.2026 21.7716 57.2495 22.4417C57.2963 23.1118 57.1276 23.7793 56.768 24.3467C57.2152 24.6467 57.5544 25.0811 57.7376 25.5883C58.1185 25.0671 58.685 24.712 59.3202 24.5965C59.9554 24.4809 60.6106 24.6137 61.1507 24.9674C61.6908 25.3212 62.0744 25.8688 62.2223 26.4972C62.3702 27.1256 62.2712 27.7868 61.9456 28.3443C62.3727 28.3928 62.7803 28.5498 63.1295 28.8004C63.4787 29.0511 63.758 29.3869 63.9406 29.776C64.1233 30.1652 64.2033 30.5946 64.1729 31.0233C64.1426 31.4521 64.003 31.866 63.7675 32.2256C63.5319 32.5851 63.2082 32.8784 62.8272 33.0774C62.4462 33.2764 62.0206 33.3745 61.5909 33.3624C61.1612 33.3504 60.7418 33.2285 60.3725 33.0084C60.0033 32.7883 59.6966 32.4773 59.4816 32.1051H20.1136V31.1387C19.6391 31.4124 19.0884 31.524 18.5448 31.4565C18.0012 31.389 17.4945 31.1461 17.1014 30.7647C16.7083 30.3832 16.4502 29.884 16.3664 29.3427C16.2826 28.8015 16.3775 28.2476 16.6368 27.7651C16.1499 27.3699 15.8279 26.8072 15.734 26.1871C15.64 25.567 15.7808 24.9342 16.1288 24.4125C16.4768 23.8907 17.0069 23.5176 17.6154 23.3661C18.224 23.2145 18.8672 23.2955 19.4192 23.5931C19.6549 23.3022 19.9526 23.0676 20.2906 22.9065C20.6286 22.7454 20.9983 22.6618 21.3728 22.6619C21.3726 22.3037 21.4489 21.9496 21.5965 21.6232C21.7441 21.2968 21.9597 21.0057 22.2288 20.7693C22.4979 20.5329 22.8144 20.3566 23.1571 20.2523C23.4998 20.148 23.8608 20.118 24.216 20.1643C24.4649 19.7238 24.8407 19.3685 25.2945 19.1447C25.7483 18.921 26.259 18.8391 26.76 18.9099C26.4525 18.3929 26.3404 17.7829 26.4438 17.1903C26.5472 16.5977 26.8594 16.0618 27.3238 15.6794C27.7882 15.2971 28.3741 15.0937 28.9755 15.1061C29.5769 15.1184 30.154 15.3457 30.6024 15.7467C31.1587 15.6995 31.715 15.8384 32.1839 16.1416C32.6527 16.4448 33.0076 16.8951 33.1928 17.4219C33.5208 17.2011 33.8968 17.0619 34.2896 17.0139C34.5674 16.5229 35.0021 16.1394 35.5239 15.925C36.0457 15.7106 36.6244 15.6777 37.1672 15.8315C37.2993 15.2244 37.6512 14.6875 38.1552 14.3242C38.6592 13.9608 39.2798 13.7966 39.8975 13.8631C40.5153 13.9296 41.0866 14.2221 41.5018 14.6844C41.9169 15.1467 42.1473 15.7462 42.1472 16.3675Z" fill="url(#paint3_radial_9_421)"/>
<path opacity="0.6" d="M37.4264 29.5868C38.2117 29.5868 38.9894 29.4321 39.715 29.1315C40.4405 28.831 41.0998 28.3905 41.6551 27.8352C42.2105 27.2798 42.651 26.6206 42.9515 25.895C43.2521 25.1694 43.4068 24.3917 43.4068 23.6064C43.4068 22.821 43.2521 22.0434 42.9515 21.3178C42.651 20.5922 42.2105 19.9329 41.6551 19.3776C41.0998 18.8223 40.4405 18.3818 39.715 18.0812C38.9894 17.7807 38.2117 17.626 37.4264 17.626C35.8404 17.626 34.3193 18.256 33.1979 19.3775C32.0764 20.4989 31.4464 22.02 31.4464 23.606C31.4464 25.192 32.0764 26.713 33.1979 27.8345C34.3193 28.9559 35.8404 29.5868 37.4264 29.5868Z" fill="url(#paint4_radial_9_421)"/>
<path opacity="0.6" d="M35.5376 25.81C36.6228 25.81 37.6636 25.3789 38.431 24.6115C39.1984 23.8441 39.6296 22.8032 39.6296 21.718C39.6296 20.6327 39.1984 19.5919 38.431 18.8245C37.6636 18.0571 36.6228 17.626 35.5376 17.626C34.4523 17.626 33.4115 18.0571 32.6441 18.8245C31.8767 19.5919 31.4456 20.6327 31.4456 21.718C31.4456 22.8032 31.8767 23.8441 32.6441 24.6115C33.4115 25.3789 34.4523 25.81 35.5376 25.81Z" fill="url(#paint5_radial_9_421)"/>
<path opacity="0.6" d="M34.2784 28.9574C35.3637 28.9574 36.4045 28.5263 37.1719 27.7589C37.9393 26.9915 38.3704 25.9507 38.3704 24.8654C38.3704 23.7802 37.9393 22.7394 37.1719 21.972C36.4045 21.2046 35.3637 20.7734 34.2784 20.7734C33.1931 20.7734 32.1523 21.2046 31.3849 21.972C30.6175 22.7394 30.1864 23.7802 30.1864 24.8654C30.1864 25.9507 30.6175 26.9915 31.3849 27.7589C32.1523 28.5263 33.1931 28.9574 34.2784 28.9574Z" fill="url(#paint6_radial_9_421)"/>
<path opacity="0.6" d="M22.3184 30.8451C23.4036 30.8451 24.4445 30.414 25.2119 29.6466C25.9793 28.8792 26.4104 27.8384 26.4104 26.7531C26.4104 25.6679 25.9793 24.6271 25.2119 23.8597C24.4445 23.0923 23.4036 22.6611 22.3184 22.6611C21.2331 22.6611 20.1923 23.0923 19.4249 23.8597C18.6575 24.6271 18.2264 25.6679 18.2264 26.7531C18.2264 27.8384 18.6575 28.8792 19.4249 29.6466C20.1923 30.414 21.2331 30.8451 22.3184 30.8451Z" fill="url(#paint7_radial_9_421)"/>
<path opacity="0.6" d="M24.836 28.9574C25.9212 28.9574 26.962 28.5263 27.7294 27.7589C28.4968 26.9915 28.928 25.9507 28.928 24.8654C28.928 23.7802 28.4968 22.7394 27.7294 21.972C26.962 21.2046 25.9212 20.7734 24.836 20.7734C23.7507 20.7734 22.7099 21.2046 21.9425 21.972C21.1751 22.7394 20.744 23.7802 20.744 24.8654C20.744 25.9507 21.1751 26.9915 21.9425 27.7589C22.7099 28.5263 23.7507 28.9574 24.836 28.9574Z" fill="url(#paint8_radial_9_421)"/>
<path opacity="0.6" d="M24.836 30.216C25.4203 30.216 25.9807 29.9838 26.3938 29.5707C26.807 29.1575 27.0392 28.5971 27.0392 28.0128C27.0392 27.4284 26.807 26.8681 26.3938 26.4549C25.9807 26.0417 25.4203 25.8096 24.836 25.8096C24.2516 25.8096 23.6912 26.0417 23.2781 26.4549C22.8649 26.8681 22.6328 27.4284 22.6328 28.0128C22.6328 28.5971 22.8649 29.1575 23.2781 29.5707C23.6912 29.9838 24.2516 30.216 24.836 30.216Z" fill="url(#paint9_radial_9_421)"/>
<path opacity="0.2" d="M59.4592 28.9572C60.0435 28.9572 60.6039 28.7251 61.0171 28.3119C61.4303 27.8987 61.6624 27.3383 61.6624 26.754C61.6624 26.1697 61.4303 25.6093 61.0171 25.1961C60.6039 24.7829 60.0435 24.5508 59.4592 24.5508C58.8749 24.5508 58.3145 24.7829 57.9013 25.1961C57.4881 25.6093 57.256 26.1697 57.256 26.754C57.256 27.3383 57.4881 27.8987 57.9013 28.3119C58.3145 28.7251 58.8749 28.9572 59.4592 28.9572Z" fill="url(#paint10_radial_9_421)"/>
<path opacity="0.2" d="M61.9768 31.4753C62.3941 31.4753 62.7944 31.3095 63.0895 31.0144C63.3846 30.7193 63.5504 30.3191 63.5504 29.9017C63.5504 29.4844 63.3846 29.0841 63.0895 28.789C62.7944 28.4939 62.3941 28.3281 61.9768 28.3281C61.5595 28.3281 61.1592 28.4939 60.8641 28.789C60.569 29.0841 60.4032 29.4844 60.4032 29.9017C60.4032 30.3191 60.569 30.7193 60.8641 31.0144C61.1592 31.3095 61.5595 31.4753 61.9768 31.4753Z" fill="url(#paint11_radial_9_421)"/>
<path opacity="0.3" d="M58.8296 32.1051C59.5809 32.1051 60.3014 31.8066 60.8327 31.2753C61.3639 30.7441 61.6624 30.0236 61.6624 29.2723C61.6624 28.5209 61.3639 27.8004 60.8327 27.2692C60.3014 26.7379 59.5809 26.4395 58.8296 26.4395C58.0783 26.4395 57.3577 26.7379 56.8265 27.2692C56.2952 27.8004 55.9968 28.5209 55.9968 29.2723C55.9968 30.0236 56.2952 30.7441 56.8265 31.2753C57.3577 31.8066 58.0783 32.1051 58.8296 32.1051Z" fill="url(#paint12_radial_9_421)"/>
<path opacity="0.2" d="M47.4984 19.5148C47.7877 19.5148 48.0742 19.4578 48.3415 19.3471C48.6088 19.2364 48.8517 19.0741 49.0563 18.8695C49.2609 18.6649 49.4231 18.422 49.5339 18.1547C49.6446 17.8874 49.7016 17.6009 49.7016 17.3116C49.7016 17.0223 49.6446 16.7358 49.5339 16.4685C49.4231 16.2012 49.2609 15.9583 49.0563 15.7537C48.8517 15.5491 48.6088 15.3868 48.3415 15.2761C48.0742 15.1654 47.7877 15.1084 47.4984 15.1084C46.914 15.1084 46.3536 15.3405 45.9405 15.7537C45.5273 16.1669 45.2952 16.7273 45.2952 17.3116C45.2952 17.8959 45.5273 18.4563 45.9405 18.8695C46.3536 19.2827 46.914 19.5148 47.4984 19.5148Z" fill="url(#paint13_radial_9_421)"/>
<path opacity="0.2" d="M39.3144 16.9966C39.7318 16.9966 40.1322 16.8308 40.4273 16.5356C40.7225 16.2404 40.8884 15.8401 40.8884 15.4226C40.8884 15.0052 40.7225 14.6048 40.4273 14.3096C40.1322 14.0145 39.7318 13.8486 39.3144 13.8486C38.8969 13.8486 38.4966 14.0145 38.2014 14.3096C37.9062 14.6048 37.7404 15.0052 37.7404 15.4226C37.7404 15.8401 37.9062 16.2404 38.2014 16.5356C38.4966 16.8308 38.8969 16.9966 39.3144 16.9966Z" fill="url(#paint14_radial_9_421)"/>
<path opacity="0.2" d="M28.6128 18.8853C29.0302 18.8853 29.4306 18.7195 29.7257 18.4243C30.0209 18.1291 30.1868 17.7288 30.1868 17.3113C30.1868 16.8939 30.0209 16.4935 29.7257 16.1983C29.4306 15.9031 29.0302 15.7373 28.6128 15.7373C28.1953 15.7373 27.795 15.9031 27.4998 16.1983C27.2046 16.4935 27.0388 16.8939 27.0388 17.3113C27.0388 17.7288 27.2046 18.1291 27.4998 18.4243C27.795 18.7195 28.1953 18.8853 28.6128 18.8853Z" fill="url(#paint15_radial_9_421)"/>
<path opacity="0.2" d="M50.016 26.4399C51.1012 26.4399 52.142 26.0087 52.9094 25.2413C53.6768 24.4739 54.108 23.4331 54.108 22.3479C54.108 21.2626 53.6768 20.2218 52.9094 19.4544C52.142 18.687 51.1012 18.2559 50.016 18.2559C48.9307 18.2559 47.8899 18.687 47.1225 19.4544C46.3551 20.2218 45.924 21.2626 45.924 22.3479C45.924 23.4331 46.3551 24.4739 47.1225 25.2413C47.8899 26.0087 48.9307 26.4399 50.016 26.4399Z" fill="url(#paint16_radial_9_421)"/>
<path opacity="0.6" d="M46.2399 25.1797C46.7821 25.1873 47.3203 25.087 47.8234 24.8848C48.3264 24.6826 48.7843 24.3824 49.1703 24.0017C49.5564 23.621 49.8629 23.1674 50.0722 22.6672C50.2814 22.1671 50.3892 21.6303 50.3892 21.0881C50.3892 20.5459 50.2814 20.0091 50.0722 19.5089C49.8629 19.0088 49.5564 18.5551 49.1703 18.1745C48.7843 17.7938 48.3264 17.4936 47.8234 17.2914C47.3203 17.0891 46.7821 16.9889 46.2399 16.9965C45.1547 16.9965 44.1139 17.4276 43.3465 18.195C42.5791 18.9624 42.1479 20.0032 42.1479 21.0885C42.1479 22.1738 42.5791 23.2146 43.3465 23.982C44.1139 24.7494 45.1547 25.1797 46.2399 25.1797Z" fill="url(#paint17_radial_9_421)"/>
<path opacity="0.2" d="M48.128 27.0688C49.2132 27.0688 50.254 26.6376 51.0214 25.8702C51.7888 25.1028 52.22 24.062 52.22 22.9768C52.22 21.8915 51.7888 20.8507 51.0214 20.0833C50.254 19.3159 49.2132 18.8848 48.128 18.8848C47.0427 18.8848 46.0019 19.3159 45.2345 20.0833C44.4671 20.8507 44.0359 21.8915 44.0359 22.9768C44.0359 24.062 44.4671 25.1028 45.2345 25.8702C46.0019 26.6376 47.0427 27.0688 48.128 27.0688Z" fill="url(#paint18_radial_9_421)"/>
<path d="M15.7079 29.5869H51.5903L48.4423 71.1341H18.2263L15.7079 29.5869Z" fill="url(#paint19_linear_9_421)"/>
<path d="M57.8856 68.6157L48.4424 71.1341L51.5904 29.5869L63.5504 32.7341L57.8856 68.6157Z" fill="url(#paint20_linear_9_421)"/>
<path fill-rule="evenodd" clip-rule="evenodd" d="M37.664 37.8659L37.8672 29.5859H30.3568L30.44 37.4579C29.1289 37.7509 27.8705 38.2433 26.7088 38.9179L26.4472 29.5867H18.9216L21.2632 71.1339H27.6176L27.364 62.1579C28.4229 62.6949 29.5497 63.0859 30.7136 63.3203L30.7976 71.1339H36.844L37.044 63.0531C38.0717 62.753 39.059 62.3285 39.984 61.7891L39.688 71.1339H46.3448L48.5376 29.5867H41.004L40.6936 39.3763C39.7526 38.7446 38.7341 38.237 37.6632 37.8659H37.664ZM50.5264 70.5779L52.8864 69.9491L57.5624 31.1587L53.9616 30.2099L50.5264 70.5779ZM54.2304 69.5907L56.084 69.0963L62.3544 32.4195L58.8544 31.4979L54.2304 69.5907ZM43.4056 50.3595C43.4056 55.9219 38.8968 60.4315 33.3336 60.4315C27.7704 60.4315 23.2616 55.9227 23.2616 50.3595C23.2616 44.7963 27.7704 40.2875 33.3336 40.2875C38.8968 40.2875 43.4056 44.7963 43.4056 50.3595ZM37.668 55.7955L36.312 51.4075L39.5984 48.9699C39.6493 48.9322 39.6876 48.8798 39.708 48.8197C39.7284 48.7596 39.73 48.6948 39.7127 48.6338C39.6953 48.5728 39.6597 48.5185 39.6107 48.4782C39.5617 48.438 39.5016 48.4136 39.4384 48.4083C38.0583 48.2969 36.6753 48.2238 35.2912 48.1891L33.6304 43.6195C33.6082 43.5589 33.5679 43.5065 33.5149 43.4695C33.462 43.4325 33.399 43.4127 33.3344 43.4127C33.2698 43.4127 33.2067 43.4325 33.1538 43.4695C33.1009 43.5065 33.0606 43.5589 33.0384 43.6195L31.3776 48.1891C29.9696 48.2243 28.5856 48.2987 27.2296 48.4083C27.1665 48.4139 27.1066 48.4384 27.0578 48.4788C27.009 48.5192 26.9737 48.5735 26.9565 48.6345C26.9393 48.6954 26.9411 48.7601 26.9615 48.8201C26.982 48.88 27.0203 48.9323 27.0712 48.9699L30.3568 51.4067L29 55.7947C28.9807 55.8572 28.9813 55.924 29.0017 55.9861C29.0221 56.0481 29.0613 56.1023 29.1138 56.1411C29.1663 56.18 29.2296 56.2015 29.2949 56.2028C29.3603 56.2041 29.4243 56.1851 29.4784 56.1483L33.3344 53.5235L37.1904 56.1483C37.2443 56.1852 37.3084 56.2044 37.3738 56.2033C37.4391 56.2022 37.5025 56.1807 37.5552 56.142C37.6078 56.1032 37.6471 56.0491 37.6676 55.987C37.6881 55.9249 37.6888 55.858 37.6696 55.7955H37.668Z" fill="url(#paint21_linear_9_421)"/>
<path opacity="0.4" d="M14.1344 66.0984C14.5517 66.0984 14.952 65.9326 15.2471 65.6375C15.5422 65.3424 15.708 64.9421 15.708 64.5248C15.708 64.1074 15.5422 63.7072 15.2471 63.4121C14.952 63.117 14.5517 62.9512 14.1344 62.9512C13.717 62.9512 13.3168 63.117 13.0217 63.4121C12.7266 63.7072 12.5608 64.1074 12.5608 64.5248C12.5608 64.9421 12.7266 65.3424 13.0217 65.6375C13.3168 65.9326 13.717 66.0984 14.1344 66.0984Z" fill="url(#paint22_radial_9_421)"/>
<path opacity="0.4" d="M11.616 67.9869C12.0334 67.9869 12.4338 67.821 12.729 67.5258C13.0242 67.2307 13.19 66.8303 13.19 66.4129C13.19 65.9954 13.0242 65.5951 12.729 65.2999C12.4338 65.0047 12.0334 64.8389 11.616 64.8389C11.1985 64.8389 10.7982 65.0047 10.503 65.2999C10.2078 65.5951 10.042 65.9954 10.042 66.4129C10.042 66.8303 10.2078 67.2307 10.503 67.5258C10.7982 67.821 11.1985 67.9869 11.616 67.9869Z" fill="url(#paint23_radial_9_421)"/>
<path opacity="0.4" d="M13.5048 67.9869C13.9222 67.9869 14.3226 67.821 14.6178 67.5258C14.913 67.2307 15.0788 66.8303 15.0788 66.4129C15.0788 65.9954 14.913 65.5951 14.6178 65.2999C14.3226 65.0047 13.9222 64.8389 13.5048 64.8389C13.0873 64.8389 12.687 65.0047 12.3918 65.2999C12.0966 65.5951 11.9308 65.9954 11.9308 66.4129C11.9308 66.8303 12.0966 67.2307 12.3918 67.5258C12.687 67.821 13.0873 67.9869 13.5048 67.9869Z" fill="url(#paint24_radial_9_421)"/>
<path opacity="0.4" d="M16.0232 69.2458C16.2298 69.2458 16.4345 69.2051 16.6254 69.126C16.8163 69.047 16.9898 68.9311 17.1359 68.7849C17.282 68.6388 17.3979 68.4653 17.477 68.2744C17.5561 68.0835 17.5968 67.8789 17.5968 67.6722C17.5968 67.4656 17.5561 67.261 17.477 67.07C17.3979 66.8791 17.282 66.7056 17.1359 66.5595C16.9898 66.4134 16.8163 66.2975 16.6254 66.2184C16.4345 66.1393 16.2298 66.0986 16.0232 66.0986C15.6058 66.0986 15.2056 66.2644 14.9105 66.5595C14.6154 66.8546 14.4496 67.2549 14.4496 67.6722C14.4496 68.0896 14.6154 68.4898 14.9105 68.7849C15.2056 69.08 15.6058 69.2458 16.0232 69.2458Z" fill="url(#paint25_radial_9_421)"/>
<path opacity="0.4" d="M66.384 68.6159C66.8013 68.6159 67.2016 68.4502 67.4967 68.1551C67.7918 67.8599 67.9576 67.4597 67.9576 67.0424C67.9576 66.625 67.7918 66.2248 67.4967 65.9297C67.2016 65.6345 66.8013 65.4688 66.384 65.4688C65.9666 65.4688 65.5664 65.6345 65.2713 65.9297C64.9762 66.2248 64.8104 66.625 64.8104 67.0424C64.8104 67.4597 64.9762 67.8599 65.2713 68.1551C65.5664 68.4502 65.9666 68.6159 66.384 68.6159Z" fill="url(#paint26_radial_9_421)"/>
<path opacity="0.4" d="M66.0688 66.0981C66.5696 66.0981 67.0499 65.8991 67.4041 65.545C67.7582 65.1908 67.9572 64.7105 67.9572 64.2097C67.9572 63.7089 67.7582 63.2285 67.4041 62.8744C67.0499 62.5202 66.5696 62.3213 66.0688 62.3213C65.5679 62.3213 65.0876 62.5202 64.7335 62.8744C64.3793 63.2285 64.1804 63.7089 64.1804 64.2097C64.1804 64.7105 64.3793 65.1908 64.7335 65.545C65.0876 65.8991 65.5679 66.0981 66.0688 66.0981Z" fill="url(#paint27_radial_9_421)"/>
<path opacity="0.4" d="M62.9216 66.0981C63.4224 66.0981 63.9028 65.8991 64.2569 65.545C64.6111 65.1908 64.81 64.7105 64.81 64.2097C64.81 63.7089 64.6111 63.2285 64.2569 62.8744C63.9028 62.5202 63.4224 62.3213 62.9216 62.3213C62.4208 62.3213 61.9404 62.5202 61.5863 62.8744C61.2322 63.2285 61.0332 63.7089 61.0332 64.2097C61.0332 64.7105 61.2322 65.1908 61.5863 65.545C61.9404 65.8991 62.4208 66.0981 62.9216 66.0981Z" fill="url(#paint28_radial_9_421)"/>
<path opacity="0.4" d="M60.7176 65.4689C61.3019 65.4689 61.8623 65.2368 62.2755 64.8236C62.6887 64.4104 62.9208 63.85 62.9208 63.2657C62.9208 62.6814 62.6887 62.121 62.2755 61.7078C61.8623 61.2946 61.3019 61.0625 60.7176 61.0625C60.1333 61.0625 59.5729 61.2946 59.1597 61.7078C58.7465 62.121 58.5144 62.6814 58.5144 63.2657C58.5144 63.85 58.7465 64.4104 59.1597 64.8236C59.5729 65.2368 60.1333 65.4689 60.7176 65.4689Z" fill="url(#paint29_radial_9_421)"/>
<path opacity="0.4" d="M15.3936 67.9873C15.978 67.9873 16.5385 67.7551 16.9518 67.3419C17.365 66.9286 17.5972 66.3681 17.5972 65.7837C17.5972 65.1992 17.365 64.6388 16.9518 64.2255C16.5385 63.8122 15.978 63.5801 15.3936 63.5801C14.8092 63.5801 14.2487 63.8122 13.8354 64.2255C13.4222 64.6388 13.19 65.1992 13.19 65.7837C13.19 66.3681 13.4222 66.9286 13.8354 67.3419C14.2487 67.7551 14.8092 67.9873 15.3936 67.9873Z" fill="url(#paint30_radial_9_421)"/>
<path fill-rule="evenodd" clip-rule="evenodd" d="M59.7736 63.5801C60.2744 63.5803 60.7546 63.7794 61.1087 64.1336C61.4627 64.4878 61.6616 64.9681 61.6616 65.4689C62.0225 65.4687 62.3792 65.546 62.7076 65.6957C63.0359 65.8454 63.3283 66.0639 63.5649 66.3365C63.8014 66.609 63.9766 66.9292 64.0787 67.2754C64.1807 67.6216 64.2071 67.9856 64.1561 68.3429C64.1052 68.7001 63.978 69.0423 63.7833 69.3461C63.5886 69.65 63.3308 69.9084 63.0275 70.104C62.7242 70.2995 62.3824 70.4276 62.0253 70.4795C61.6682 70.5314 61.304 70.506 60.9576 70.4049C60.8269 70.8602 60.5297 71.2497 60.1252 71.4962C59.7206 71.7426 59.2382 71.828 58.7737 71.7354C58.3091 71.6427 57.8963 71.3788 57.6173 70.996C57.3382 70.6132 57.2133 70.1395 57.2672 69.6689C56.8376 69.4679 56.4843 69.1337 56.2598 68.7159C56.0353 68.2981 55.9515 67.819 56.021 67.3498C56.0904 66.8806 56.3094 66.4464 56.6453 66.1116C56.9812 65.7767 57.4162 65.5592 57.8856 65.4913V65.4689C57.8856 64.9681 58.0845 64.4879 58.4386 64.1339C58.7926 63.7798 59.2729 63.5801 59.7736 63.5801Z" fill="url(#paint31_radial_9_421)"/>
<defs>
<radialGradient id="paint0_radial_9_421" cx="0" cy="0" r="1" gradientUnits="userSpaceOnUse" gradientTransform="translate(39 69.2829) rotate(-90) scale(6.96161 38.6054)">
<stop offset="0.286" stop-color="#7D2889"/>
<stop offset="0.724" stop-color="#FF66D9" stop-opacity="0.41"/>
<stop offset="1" stop-color="white" stop-opacity="0"/>
</radialGradient>
<radialGradient id="paint1_radial_9_421" cx="0" cy="0" r="1" gradientUnits="userSpaceOnUse" gradientTransform="translate(39 31.3243) rotate(-90) scale(30.6945 38.6054)">
<stop stop-color="#FFCA45"/>
<stop offset="0.453" stop-color="#FF66D9" stop-opacity="0.36"/>
<stop offset="1" stop-color="white" stop-opacity="0"/>
</radialGradient>
<radialGradient id="paint2_radial_9_421" cx="0" cy="0" r="1" gradientUnits="userSpaceOnUse" gradientTransform="translate(38.056 63.5803) rotate(180) scale(30.2164 30.2164)">
<stop offset="0.432" stop-color="#FF8B54"/>
<stop offset="0.76" stop-color="#FFBB8D"/>
<stop offset="1" stop-color="#F9DDD1"/>
</radialGradient>
<radialGradient id="paint3_radial_9_421" cx="0" cy="0" r="1" gradientUnits="userSpaceOnUse" gradientTransform="translate(38.6856 22.3475) rotate(-90) scale(8.4984 22.6056)">
<stop offset="0.302" stop-color="#F9DDD1"/>
<stop offset="0.674" stop-color="#FFBB8D"/>
<stop offset="1" stop-color="#FF8B54"/>
</radialGradient>
<radialGradient id="paint4_radial_9_421" cx="0" cy="0" r="1" gradientUnits="userSpaceOnUse" gradientTransform="translate(37.4255 23.958) rotate(90) scale(5.62854)">
<stop offset="0.375" stop-color="#FFF4EB"/>
<stop offset="1" stop-color="#FFF3EB" stop-opacity="0"/>
</radialGradient>
<radialGradient id="paint5_radial_9_421" cx="0" cy="0" r="1" gradientUnits="userSpaceOnUse" gradientTransform="translate(35.5376 21.9588) rotate(90) scale(3.85111)">
<stop offset="0.375" stop-color="#FFF4EB"/>
<stop offset="1" stop-color="#FFF3EB" stop-opacity="0"/>
</radialGradient>
<radialGradient id="paint6_radial_9_421" cx="0" cy="0" r="1" gradientUnits="userSpaceOnUse" gradientTransform="translate(34.2784 25.1054) rotate(90) scale(3.85111)">
<stop offset="0.375" stop-color="#FFF4EB"/>
<stop offset="1" stop-color="#FFF3EB" stop-opacity="0"/>
</radialGradient>
<radialGradient id="paint7_radial_9_421" cx="0" cy="0" r="1" gradientUnits="userSpaceOnUse" gradientTransform="translate(22.3176 26.9939) rotate(90) scale(3.85111)">
<stop offset="0.375" stop-color="#FFF4EB"/>
<stop offset="1" stop-color="#FFF3EB" stop-opacity="0"/>
</radialGradient>
<radialGradient id="paint8_radial_9_421" cx="0" cy="0" r="1" gradientUnits="userSpaceOnUse" gradientTransform="translate(24.836 25.1062) rotate(90) scale(3.85111)">
<stop offset="0.375" stop-color="#FFF4EB"/>
<stop offset="1" stop-color="#FFF3EB" stop-opacity="0"/>
</radialGradient>
<radialGradient id="paint9_radial_9_421" cx="0" cy="0" r="1" gradientUnits="userSpaceOnUse" gradientTransform="translate(24.836 28.1432) rotate(90) scale(2.07367)">
<stop offset="0.375" stop-color="#FFF4EB"/>
<stop offset="1" stop-color="#FFF3EB" stop-opacity="0"/>
</radialGradient>
<radialGradient id="paint10_radial_9_421" cx="0" cy="0" r="1" gradientUnits="userSpaceOnUse" gradientTransform="translate(59.46 26.8836) rotate(90) scale(2.07367 2.07367)">
<stop offset="0.375" stop-color="#FFF4EB"/>
<stop offset="1" stop-color="#FFF3EB" stop-opacity="0"/>
</radialGradient>
<radialGradient id="paint11_radial_9_421" cx="0" cy="0" r="1" gradientUnits="userSpaceOnUse" gradientTransform="translate(61.9768 29.9945) rotate(90) scale(1.48119 1.48119)">
<stop offset="0.375" stop-color="#FFF4EB"/>
<stop offset="1" stop-color="#FFF3EB" stop-opacity="0"/>
</radialGradient>
<radialGradient id="paint12_radial_9_421" cx="0" cy="0" r="1" gradientUnits="userSpaceOnUse" gradientTransform="translate(58.8288 29.4387) rotate(90) scale(2.66615)">
<stop offset="0.375" stop-color="#FFF4EB"/>
<stop offset="1" stop-color="#FFF3EB" stop-opacity="0"/>
</radialGradient>
<radialGradient id="paint13_radial_9_421" cx="0" cy="0" r="1" gradientUnits="userSpaceOnUse" gradientTransform="translate(47.4976 17.442) rotate(90) scale(2.07367)">
<stop offset="0.375" stop-color="#FFF4EB"/>
<stop offset="1" stop-color="#FFF3EB" stop-opacity="0"/>
</radialGradient>
<radialGradient id="paint14_radial_9_421" cx="0" cy="0" r="1" gradientUnits="userSpaceOnUse" gradientTransform="translate(39.3152 15.515) rotate(90) scale(1.4812)">
<stop offset="0.375" stop-color="#FFF4EB"/>
<stop offset="1" stop-color="#FFF3EB" stop-opacity="0"/>
</radialGradient>
<radialGradient id="paint15_radial_9_421" cx="0" cy="0" r="1" gradientUnits="userSpaceOnUse" gradientTransform="translate(28.6128 17.4045) rotate(90) scale(1.48119)">
<stop offset="0.375" stop-color="#FFF4EB"/>
<stop offset="1" stop-color="#FFF3EB" stop-opacity="0"/>
</radialGradient>
<radialGradient id="paint16_radial_9_421" cx="0" cy="0" r="1" gradientUnits="userSpaceOnUse" gradientTransform="translate(50.0168 22.5879) rotate(90) scale(3.85111 3.85111)">
<stop offset="0.375" stop-color="#FFF4EB"/>
<stop offset="1" stop-color="#FFF3EB" stop-opacity="0"/>
</radialGradient>
<radialGradient id="paint17_radial_9_421" cx="0" cy="0" r="1" gradientUnits="userSpaceOnUse" gradientTransform="translate(46.2391 21.3285) rotate(90) scale(3.85111)">
<stop offset="0.375" stop-color="#FFF4EB"/>
<stop offset="1" stop-color="#FFF3EB" stop-opacity="0"/>
</radialGradient>
<radialGradient id="paint18_radial_9_421" cx="0" cy="0" r="1" gradientUnits="userSpaceOnUse" gradientTransform="translate(48.128 23.2176) rotate(90) scale(3.85111 3.85111)">
<stop offset="0.375" stop-color="#FFF4EB"/>
<stop offset="1" stop-color="#FFF3EB" stop-opacity="0"/>
</radialGradient>
<linearGradient id="paint19_linear_9_421" x1="48.4423" y1="71.1341" x2="27.6111" y2="16.8365" gradientUnits="userSpaceOnUse">
<stop stop-color="#E0B1CC"/>
<stop offset="0.431" stop-color="#FFF1F1"/>
<stop offset="1" stop-color="#FFC9A5"/>
</linearGradient>
<linearGradient id="paint20_linear_9_421" x1="48.4424" y1="42.4917" x2="67.328" y2="42.4917" gradientUnits="userSpaceOnUse">
<stop stop-color="#D16AE9"/>
<stop offset="1" stop-color="#FF661D"/>
</linearGradient>
<linearGradient id="paint21_linear_9_421" x1="15.0888" y1="29.5867" x2="60.7088" y2="68.4963" gradientUnits="userSpaceOnUse">
<stop stop-color="#FF661D"/>
<stop offset="0.5" stop-color="#CE3A00"/>
<stop offset="1" stop-color="#A60A5E"/>
</linearGradient>
<radialGradient id="paint22_radial_9_421" cx="0" cy="0" r="1" gradientUnits="userSpaceOnUse" gradientTransform="translate(14.1344 64.6176) rotate(90) scale(1.4812)">
<stop offset="0.375" stop-color="#F9DDD1"/>
<stop offset="1" stop-color="#FFF3EB" stop-opacity="0"/>
</radialGradient>
<radialGradient id="paint23_radial_9_421" cx="0" cy="0" r="1" gradientUnits="userSpaceOnUse" gradientTransform="translate(11.6168 66.5061) rotate(90) scale(1.4812 1.4812)">
<stop offset="0.375" stop-color="#F9DDD1"/>
<stop offset="1" stop-color="#FFF3EB" stop-opacity="0"/>
</radialGradient>
<radialGradient id="paint24_radial_9_421" cx="0" cy="0" r="1" gradientUnits="userSpaceOnUse" gradientTransform="translate(13.5056 66.5053) rotate(90) scale(1.4812)">
<stop offset="0.375" stop-color="#F9DDD1"/>
<stop offset="1" stop-color="#FFF3EB" stop-opacity="0"/>
</radialGradient>
<radialGradient id="paint25_radial_9_421" cx="0" cy="0" r="1" gradientUnits="userSpaceOnUse" gradientTransform="translate(16.0232 67.7658) rotate(90) scale(1.48119)">
<stop offset="0.375" stop-color="#F9DDD1"/>
<stop offset="1" stop-color="#FFF3EB" stop-opacity="0"/>
</radialGradient>
<radialGradient id="paint26_radial_9_421" cx="0" cy="0" r="1" gradientUnits="userSpaceOnUse" gradientTransform="translate(66.384 67.1359) rotate(90) scale(1.48119)">
<stop offset="0.375" stop-color="#F9DDD1"/>
<stop offset="1" stop-color="#FFF3EB" stop-opacity="0"/>
</radialGradient>
<radialGradient id="paint27_radial_9_421" cx="0" cy="0" r="1" gradientUnits="userSpaceOnUse" gradientTransform="translate(66.0688 64.3197) rotate(90) scale(1.77744)">
<stop offset="0.375" stop-color="#F9DDD1"/>
<stop offset="1" stop-color="#FFF3EB" stop-opacity="0"/>
</radialGradient>
<radialGradient id="paint28_radial_9_421" cx="0" cy="0" r="1" gradientUnits="userSpaceOnUse" gradientTransform="translate(62.9208 64.3205) rotate(90) scale(1.77744)">
<stop offset="0.375" stop-color="#F9DDD1"/>
<stop offset="1" stop-color="#FFF3EB" stop-opacity="0"/>
</radialGradient>
<radialGradient id="paint29_radial_9_421" cx="0" cy="0" r="1" gradientUnits="userSpaceOnUse" gradientTransform="translate(60.7184 63.3953) rotate(90) scale(2.07368 2.07368)">
<stop offset="0.375" stop-color="#F9DDD1"/>
<stop offset="1" stop-color="#FFF3EB" stop-opacity="0"/>
</radialGradient>
<radialGradient id="paint30_radial_9_421" cx="0" cy="0" r="1" gradientUnits="userSpaceOnUse" gradientTransform="translate(15.3936 65.9137) rotate(90) scale(2.07368 2.07368)">
<stop offset="0.375" stop-color="#F9DDD1"/>
<stop offset="1" stop-color="#FFF3EB" stop-opacity="0"/>
</radialGradient>
<radialGradient id="paint31_radial_9_421" cx="0" cy="0" r="1" gradientUnits="userSpaceOnUse" gradientTransform="translate(61.6625 67.6724) rotate(111.038) scale(4.38402)">
<stop stop-color="#FDF7F2"/>
<stop offset="1" stop-color="#FFD8BD"/>
</radialGradient>
</defs>
</svg>
